# xmcd
#
# Track frame offsets: 
#        150
#        2060
#        22770
#        41185
#        45066
#        97170
#        121221
#        132398
#        148383
#        171243
#        189867
#        234817
#
# Disc length: 3167 seconds
#
# Revision: 0
# Processed by: cddbd v1.5.2PL0 Copyright (c) Steve Scherf et al.
# Submitted via: ExactAudioCopy v1.0b1
#
DISCID=950c5d0c
DTITLE=Stevie Ray Vaughan - Broadcast Collection 83-89 CD2
DYEAR=2017
DGENRE=Blues
TTITLE0=Introduction
TTITLE1=Say What!
TTITLE2=Testify
TTITLE3=Band Chatter
TTITLE4=Voodoo Chile (Slight Return)
TTITLE5=The Things (That) I Used To Do
TTITLE6=Honey bee
TTITLE7=Mary Had A Little Lamb
TTITLE8=Couldn´t Stand the weather
TTITLE9=Cold Shot
TTITLE10=Tin Pan Alley (Aka The Roughest Place In Town)
TTITLE11=Band Chat
EXTD=
EXTT0=
EXTT1=
EXTT2=
EXTT3=
EXTT4=
EXTT5=
EXTT6=
EXTT7=
EXTT8=
EXTT9=
EXTT10=
EXTT11=
PLAYORDER=
